<svg xmlns="http://www.w3.org/2000/svg" width="18" height="18.75" viewBox="0 0 18 18.75">
  <g id="calendar" transform="translate(-4.5 -4.25)">
    <g id="Path_53" data-name="Path 53" transform="translate(0 -0.333)" fill="none" stroke-linecap="round" stroke-linejoin="round">
      <path d="M6.5,6h14a1.964,1.964,0,0,1,2,1.926V21.407a1.964,1.964,0,0,1-2,1.926H6.5a1.964,1.964,0,0,1-2-1.926V7.926A1.964,1.964,0,0,1,6.5,6Z" stroke="none"/>
      <path d="M 6.5 7.499996185302734 C 6.224300384521484 7.499996185302734 6 7.691066741943359 6 7.925926208496094 L 6 21.40740585327148 C 6 21.64226722717285 6.224300384521484 21.83333587646484 6.5 21.83333587646484 L 20.5 21.83333587646484 C 20.77569961547852 21.83333587646484 21 21.64226722717285 21 21.40740585327148 L 21 7.925926208496094 C 21 7.691066741943359 20.77569961547852 7.499996185302734 20.5 7.499996185302734 L 6.5 7.499996185302734 M 6.5 5.999996185302734 L 20.5 5.999996185302734 C 21.60457038879395 5.999996185302734 22.5 6.862266540527344 22.5 7.925926208496094 L 22.5 21.40740585327148 C 22.5 22.47106742858887 21.60457038879395 23.33333587646484 20.5 23.33333587646484 L 6.5 23.33333587646484 C 5.395429611206055 23.33333587646484 4.5 22.47106742858887 4.5 21.40740585327148 L 4.5 7.925926208496094 C 4.5 6.862266540527344 5.395429611206055 5.999996185302734 6.5 5.999996185302734 Z" stroke="none" fill="#929292"/>
    </g>
    <path id="Path_54" data-name="Path 54" d="M24,3V6.333" transform="translate(-6.5 2)" fill="none" stroke="#929292" stroke-linecap="round" stroke-linejoin="round" stroke-width="1.5"/>
    <path id="Path_55" data-name="Path 55" d="M12,3V6.333" transform="translate(-2.5 2)" fill="none" stroke="#929292" stroke-linecap="round" stroke-linejoin="round" stroke-width="1.5"/>
    <path id="Path_56" data-name="Path 56" d="M4.5,15H19.678" transform="translate(1.411 -2.667)" fill="none" stroke="#929292" stroke-linecap="round" stroke-linejoin="round" stroke-width="1.5"/>
  </g>
</svg>
